<mxfile host="app.diagrams.net" modified="2021-02-03T16:50:19.378Z" agent="5.0 (Windows NT 10.0; Win64; x64) AppleWebKit/537.36 (KHTML, like Gecko) Chrome/88.0.4324.104 Safari/537.36" etag="B0lRpixLsOBaCDGv4IRX" version="14.2.9" type="github">
  <diagram id="mZGh_RR28e_5rWhWMPwG" name="Page-1">
    <mxGraphModel dx="1422" dy="794" grid="1" gridSize="10" guides="1" tooltips="1" connect="1" arrows="1" fold="1" page="1" pageScale="1" pageWidth="850" pageHeight="1100" math="0" shadow="0">
      <root>
        <mxCell id="0" />
        <mxCell id="1" parent="0" />
        <mxCell id="PxzkpLSmrIi1IH7mPmlL-12" style="edgeStyle=orthogonalEdgeStyle;rounded=0;orthogonalLoop=1;jettySize=auto;html=1;" edge="1" parent="1" source="PxzkpLSmrIi1IH7mPmlL-1" target="PxzkpLSmrIi1IH7mPmlL-2">
          <mxGeometry relative="1" as="geometry" />
        </mxCell>
        <mxCell id="PxzkpLSmrIi1IH7mPmlL-13" style="edgeStyle=orthogonalEdgeStyle;rounded=0;orthogonalLoop=1;jettySize=auto;html=1;entryX=0;entryY=0.5;entryDx=0;entryDy=0;" edge="1" parent="1" source="PxzkpLSmrIi1IH7mPmlL-1" target="PxzkpLSmrIi1IH7mPmlL-6">
          <mxGeometry relative="1" as="geometry" />
        </mxCell>
        <mxCell id="PxzkpLSmrIi1IH7mPmlL-1" value="price approved" style="rounded=1;whiteSpace=wrap;html=1;" vertex="1" parent="1">
          <mxGeometry x="10" y="350" width="120" height="60" as="geometry" />
        </mxCell>
        <mxCell id="PxzkpLSmrIi1IH7mPmlL-11" style="edgeStyle=orthogonalEdgeStyle;rounded=0;orthogonalLoop=1;jettySize=auto;html=1;" edge="1" parent="1" source="PxzkpLSmrIi1IH7mPmlL-2" target="PxzkpLSmrIi1IH7mPmlL-3">
          <mxGeometry relative="1" as="geometry" />
        </mxCell>
        <mxCell id="PxzkpLSmrIi1IH7mPmlL-2" value="rlr start" style="rounded=1;whiteSpace=wrap;html=1;" vertex="1" parent="1">
          <mxGeometry x="240" y="290" width="120" height="60" as="geometry" />
        </mxCell>
        <mxCell id="PxzkpLSmrIi1IH7mPmlL-10" style="edgeStyle=orthogonalEdgeStyle;rounded=0;orthogonalLoop=1;jettySize=auto;html=1;" edge="1" parent="1" source="PxzkpLSmrIi1IH7mPmlL-3" target="PxzkpLSmrIi1IH7mPmlL-5">
          <mxGeometry relative="1" as="geometry" />
        </mxCell>
        <mxCell id="PxzkpLSmrIi1IH7mPmlL-18" style="edgeStyle=orthogonalEdgeStyle;rounded=0;orthogonalLoop=1;jettySize=auto;html=1;" edge="1" parent="1" source="PxzkpLSmrIi1IH7mPmlL-3" target="PxzkpLSmrIi1IH7mPmlL-17">
          <mxGeometry relative="1" as="geometry" />
        </mxCell>
        <mxCell id="PxzkpLSmrIi1IH7mPmlL-3" value="submit page" style="rounded=1;whiteSpace=wrap;html=1;" vertex="1" parent="1">
          <mxGeometry x="420" y="290" width="120" height="60" as="geometry" />
        </mxCell>
        <mxCell id="PxzkpLSmrIi1IH7mPmlL-14" style="edgeStyle=orthogonalEdgeStyle;rounded=0;orthogonalLoop=1;jettySize=auto;html=1;entryX=0.75;entryY=1;entryDx=0;entryDy=0;" edge="1" parent="1" source="PxzkpLSmrIi1IH7mPmlL-4" target="PxzkpLSmrIi1IH7mPmlL-3">
          <mxGeometry relative="1" as="geometry" />
        </mxCell>
        <mxCell id="PxzkpLSmrIi1IH7mPmlL-4" value="recall" style="rounded=1;whiteSpace=wrap;html=1;" vertex="1" parent="1">
          <mxGeometry x="240" y="480" width="120" height="60" as="geometry" />
        </mxCell>
        <mxCell id="PxzkpLSmrIi1IH7mPmlL-7" style="edgeStyle=orthogonalEdgeStyle;rounded=0;orthogonalLoop=1;jettySize=auto;html=1;entryX=1;entryY=0.75;entryDx=0;entryDy=0;" edge="1" parent="1" source="PxzkpLSmrIi1IH7mPmlL-5" target="PxzkpLSmrIi1IH7mPmlL-4">
          <mxGeometry relative="1" as="geometry">
            <Array as="points">
              <mxPoint x="690" y="525" />
            </Array>
          </mxGeometry>
        </mxCell>
        <mxCell id="PxzkpLSmrIi1IH7mPmlL-16" style="edgeStyle=orthogonalEdgeStyle;rounded=0;orthogonalLoop=1;jettySize=auto;html=1;" edge="1" parent="1" source="PxzkpLSmrIi1IH7mPmlL-5" target="PxzkpLSmrIi1IH7mPmlL-15">
          <mxGeometry relative="1" as="geometry" />
        </mxCell>
        <mxCell id="PxzkpLSmrIi1IH7mPmlL-5" value="approved" style="rounded=1;whiteSpace=wrap;html=1;" vertex="1" parent="1">
          <mxGeometry x="630" y="290" width="120" height="60" as="geometry" />
        </mxCell>
        <mxCell id="PxzkpLSmrIi1IH7mPmlL-9" style="edgeStyle=orthogonalEdgeStyle;rounded=0;orthogonalLoop=1;jettySize=auto;html=1;" edge="1" parent="1" source="PxzkpLSmrIi1IH7mPmlL-6" target="PxzkpLSmrIi1IH7mPmlL-3">
          <mxGeometry relative="1" as="geometry" />
        </mxCell>
        <mxCell id="PxzkpLSmrIi1IH7mPmlL-6" value="rlr start" style="rounded=1;whiteSpace=wrap;html=1;" vertex="1" parent="1">
          <mxGeometry x="240" y="380" width="120" height="60" as="geometry" />
        </mxCell>
        <mxCell id="PxzkpLSmrIi1IH7mPmlL-8" value="" style="endArrow=classic;html=1;entryX=1;entryY=0.75;entryDx=0;entryDy=0;exitX=0.25;exitY=1;exitDx=0;exitDy=0;" edge="1" parent="1" source="PxzkpLSmrIi1IH7mPmlL-5" target="PxzkpLSmrIi1IH7mPmlL-6">
          <mxGeometry width="50" height="50" relative="1" as="geometry">
            <mxPoint x="400" y="430" as="sourcePoint" />
            <mxPoint x="450" y="380" as="targetPoint" />
            <Array as="points">
              <mxPoint x="660" y="425" />
            </Array>
          </mxGeometry>
        </mxCell>
        <mxCell id="PxzkpLSmrIi1IH7mPmlL-15" value="5000" style="ellipse;whiteSpace=wrap;html=1;" vertex="1" parent="1">
          <mxGeometry x="730" y="160" width="120" height="80" as="geometry" />
        </mxCell>
        <mxCell id="PxzkpLSmrIi1IH7mPmlL-17" value="4000" style="ellipse;whiteSpace=wrap;html=1;" vertex="1" parent="1">
          <mxGeometry x="420" y="150" width="120" height="80" as="geometry" />
        </mxCell>
        <mxCell id="PxzkpLSmrIi1IH7mPmlL-19" value="rlr grid" style="rounded=1;whiteSpace=wrap;html=1;" vertex="1" parent="1">
          <mxGeometry x="240" y="570" width="120" height="60" as="geometry" />
        </mxCell>
        <mxCell id="PxzkpLSmrIi1IH7mPmlL-20" value="&lt;pre style=&quot;background-color: #ffffff ; color: #000000 ; font-family: &amp;quot;jetbrains mono&amp;quot; , monospace ; font-size: 9.8pt&quot;&gt;&lt;span style=&quot;color: #2a00ff&quot;&gt;FOUR_P_APPROVED_EXTERNAL&lt;/span&gt;&lt;/pre&gt;" style="ellipse;whiteSpace=wrap;html=1;" vertex="1" parent="1">
          <mxGeometry x="470" y="700" width="240" height="60" as="geometry" />
        </mxCell>
        <mxCell id="PxzkpLSmrIi1IH7mPmlL-21" value="auto grid approval&amp;nbsp;" style="rounded=1;whiteSpace=wrap;html=1;" vertex="1" parent="1">
          <mxGeometry x="240" y="650" width="120" height="60" as="geometry" />
        </mxCell>
      </root>
    </mxGraphModel>
  </diagram>
</mxfile>
